<svg id="visual" viewBox="0 0 900 600" width="900" height="600" xmlns="http://www.w3.org/2000/svg" xmlns:xlink="http://www.w3.org/1999/xlink" version="1.1"><rect x="0" y="0" width="900" height="600" fill="#393A3D"></rect><defs><linearGradient id="grad1_0" x1="33.3%" y1="100%" x2="100%" y2="0%"><stop offset="20%" stop-color="#ffc86b" stop-opacity="1"></stop><stop offset="80%" stop-color="#ffc86b" stop-opacity="1"></stop></linearGradient></defs><defs><linearGradient id="grad1_1" x1="33.3%" y1="100%" x2="100%" y2="0%"><stop offset="20%" stop-color="#ffc86b" stop-opacity="1"></stop><stop offset="80%" stop-color="#eb917b" stop-opacity="1"></stop></linearGradient></defs><defs><linearGradient id="grad1_2" x1="33.3%" y1="100%" x2="100%" y2="0%"><stop offset="20%" stop-color="#af6f83" stop-opacity="1"></stop><stop offset="80%" stop-color="#eb917b" stop-opacity="1"></stop></linearGradient></defs><defs><linearGradient id="grad1_3" x1="33.3%" y1="100%" x2="100%" y2="0%"><stop offset="20%" stop-color="#af6f83" stop-opacity="1"></stop><stop offset="80%" stop-color="#68576d" stop-opacity="1"></stop></linearGradient></defs><defs><linearGradient id="grad1_4" x1="33.3%" y1="100%" x2="100%" y2="0%"><stop offset="20%" stop-color="#393a3d" stop-opacity="1"></stop><stop offset="80%" stop-color="#68576d" stop-opacity="1"></stop></linearGradient></defs><defs><linearGradient id="grad2_0" x1="0%" y1="100%" x2="66.7%" y2="0%"><stop offset="20%" stop-color="#ffc86b" stop-opacity="1"></stop><stop offset="80%" stop-color="#ffc86b" stop-opacity="1"></stop></linearGradient></defs><defs><linearGradient id="grad2_1" x1="0%" y1="100%" x2="66.7%" y2="0%"><stop offset="20%" stop-color="#eb917b" stop-opacity="1"></stop><stop offset="80%" stop-color="#ffc86b" stop-opacity="1"></stop></linearGradient></defs><defs><linearGradient id="grad2_2" x1="0%" y1="100%" x2="66.7%" y2="0%"><stop offset="20%" stop-color="#eb917b" stop-opacity="1"></stop><stop offset="80%" stop-color="#af6f83" stop-opacity="1"></stop></linearGradient></defs><defs><linearGradient id="grad2_3" x1="0%" y1="100%" x2="66.7%" y2="0%"><stop offset="20%" stop-color="#68576d" stop-opacity="1"></stop><stop offset="80%" stop-color="#af6f83" stop-opacity="1"></stop></linearGradient></defs><defs><linearGradient id="grad2_4" x1="0%" y1="100%" x2="66.7%" y2="0%"><stop offset="20%" stop-color="#68576d" stop-opacity="1"></stop><stop offset="80%" stop-color="#393a3d" stop-opacity="1"></stop></linearGradient></defs><g transform="translate(900, 600)"><path d="M-378.6 0C-376.7 -22.5 -374.9 -45 -364.4 -64.2C-353.9 -83.5 -334.8 -99.6 -326.1 -118.7C-317.3 -137.7 -318.9 -159.7 -316.1 -182.5C-313.3 -205.3 -306 -228.9 -290 -243.3C-274 -257.8 -249.2 -263.1 -230.1 -274.2C-211 -285.4 -197.6 -302.4 -179.5 -310.9C-161.4 -319.4 -138.7 -319.5 -119 -327C-99.3 -334.6 -82.7 -349.6 -63.4 -359.5C-44.1 -369.3 -22 -373.9 0 -378.6L0 0Z" fill="#4c4957"></path><path d="M-302.9 0C-301.4 -18 -299.9 -36 -291.5 -51.4C-283.1 -66.8 -267.9 -79.7 -260.9 -94.9C-253.9 -110.2 -255.1 -127.8 -252.9 -146C-250.6 -164.2 -244.8 -183.1 -232 -194.7C-219.2 -206.2 -199.4 -210.5 -184.1 -219.4C-168.8 -228.3 -158.1 -241.9 -143.6 -248.7C-129.1 -255.5 -111 -255.6 -95.2 -261.6C-79.5 -267.6 -66.2 -279.7 -50.7 -287.6C-35.2 -295.4 -17.6 -299.2 0 -302.9L0 0Z" fill="#8a637c"></path><path d="M-227.1 0C-226 -13.5 -224.9 -27 -218.6 -38.5C-212.3 -50.1 -200.9 -59.8 -195.6 -71.2C-190.4 -82.6 -191.4 -95.8 -189.7 -109.5C-188 -123.2 -183.6 -137.3 -174 -146C-164.4 -154.7 -149.5 -157.9 -138.1 -164.5C-126.6 -171.2 -118.5 -181.4 -107.7 -186.5C-96.9 -191.7 -83.2 -191.7 -71.4 -196.2C-59.6 -200.7 -49.6 -209.8 -38 -215.7C-26.4 -221.6 -13.2 -224.4 0 -227.1L0 0Z" fill="#d07d82"></path><path d="M-151.4 0C-150.7 -9 -149.9 -18 -145.8 -25.7C-141.6 -33.4 -133.9 -39.9 -130.4 -47.5C-126.9 -55.1 -127.6 -63.9 -126.4 -73C-125.3 -82.1 -122.4 -91.6 -116 -97.3C-109.6 -103.1 -99.7 -105.2 -92 -109.7C-84.4 -114.2 -79 -121 -71.8 -124.4C-64.6 -127.8 -55.5 -127.8 -47.6 -130.8C-39.7 -133.8 -33.1 -139.8 -25.4 -143.8C-17.6 -147.7 -8.8 -149.6 0 -151.4L0 0Z" fill="#fbaa71"></path><path d="M-75.7 0C-75.3 -4.5 -75 -9 -72.9 -12.8C-70.8 -16.7 -67 -19.9 -65.2 -23.7C-63.5 -27.5 -63.8 -31.9 -63.2 -36.5C-62.7 -41.1 -61.2 -45.8 -58 -48.7C-54.8 -51.6 -49.8 -52.6 -46 -54.8C-42.2 -57.1 -39.5 -60.5 -35.9 -62.2C-32.3 -63.9 -27.7 -63.9 -23.8 -65.4C-19.9 -66.9 -16.5 -69.9 -12.7 -71.9C-8.8 -73.9 -4.4 -74.8 0 -75.7L0 0Z" fill="#ffc86b"></path></g><g transform="translate(0, 0)"><path d="M378.6 0C368.4 20.8 358.2 41.5 351.6 62C345 82.5 342 102.7 337.3 122.8C332.7 142.9 326.5 162.8 320.4 185C314.4 207.2 308.4 231.8 290 243.3C271.6 254.9 240.7 253.6 221.1 263.5C201.6 273.5 193.3 294.7 179.5 310.9C165.7 327.1 146.2 338.4 126.2 346.7C106.2 355.1 85.6 360.5 64.4 365.4C43.3 370.2 21.6 374.4 0 378.6L0 0Z" fill="#4c4957"></path><path d="M302.9 0C294.7 16.6 286.5 33.2 281.3 49.6C276 66 273.6 82.2 269.9 98.2C266.2 114.3 261.2 130.2 256.3 148C251.5 165.8 246.7 185.4 232 194.7C217.3 204 192.5 202.9 176.9 210.8C161.2 218.8 154.7 235.7 143.6 248.7C132.5 261.7 117 270.7 101 277.4C84.9 284.1 68.4 288.4 51.5 292.3C34.6 296.1 17.3 299.5 0 302.9L0 0Z" fill="#8a637c"></path><path d="M227.1 0C221 12.5 214.9 24.9 210.9 37.2C207 49.5 205.2 61.6 202.4 73.7C199.6 85.7 195.9 97.7 192.3 111C188.6 124.3 185.1 139.1 174 146C163 153 144.4 152.2 132.7 158.1C120.9 164.1 116 176.8 107.7 186.5C99.4 196.3 87.7 203 75.7 208C63.7 213.1 51.3 216.3 38.7 219.2C26 222.1 13 224.6 0 227.1L0 0Z" fill="#d07d82"></path><path d="M151.4 0C147.4 8.3 143.3 16.6 140.6 24.8C138 33 136.8 41.1 134.9 49.1C133.1 57.1 130.6 65.1 128.2 74C125.7 82.9 123.4 92.7 116 97.3C108.6 102 96.3 101.4 88.4 105.4C80.6 109.4 77.3 117.9 71.8 124.4C66.3 130.9 58.5 135.4 50.5 138.7C42.5 142 34.2 144.2 25.8 146.1C17.3 148.1 8.7 149.8 0 151.4L0 0Z" fill="#fbaa71"></path><path d="M75.7 0C73.7 4.2 71.6 8.3 70.3 12.4C69 16.5 68.4 20.5 67.5 24.6C66.5 28.6 65.3 32.6 64.1 37C62.9 41.4 61.7 46.4 58 48.7C54.3 51 48.1 50.7 44.2 52.7C40.3 54.7 38.7 58.9 35.9 62.2C33.1 65.4 29.2 67.7 25.2 69.3C21.2 71 17.1 72.1 12.9 73.1C8.7 74 4.3 74.9 0 75.7L0 0Z" fill="#ffc86b"></path></g></svg>