<svg id="visual" viewBox="0 0 900 600" width="900" height="600" xmlns="http://www.w3.org/2000/svg" xmlns:xlink="http://www.w3.org/1999/xlink" version="1.1"><rect x="0" y="0" width="900" height="600" fill="#34353A"></rect><defs><linearGradient id="grad1_0" x1="33.3%" y1="0%" x2="100%" y2="100%"><stop offset="20%" stop-color="#ffc86b" stop-opacity="1"></stop><stop offset="80%" stop-color="#ffc86b" stop-opacity="1"></stop></linearGradient></defs><defs><linearGradient id="grad1_1" x1="33.3%" y1="0%" x2="100%" y2="100%"><stop offset="20%" stop-color="#ffc86b" stop-opacity="1"></stop><stop offset="80%" stop-color="#f19974" stop-opacity="1"></stop></linearGradient></defs><defs><linearGradient id="grad1_2" x1="33.3%" y1="0%" x2="100%" y2="100%"><stop offset="20%" stop-color="#c8787e" stop-opacity="1"></stop><stop offset="80%" stop-color="#f19974" stop-opacity="1"></stop></linearGradient></defs><defs><linearGradient id="grad1_3" x1="33.3%" y1="0%" x2="100%" y2="100%"><stop offset="20%" stop-color="#c8787e" stop-opacity="1"></stop><stop offset="80%" stop-color="#906179" stop-opacity="1"></stop></linearGradient></defs><defs><linearGradient id="grad1_4" x1="33.3%" y1="0%" x2="100%" y2="100%"><stop offset="20%" stop-color="#594d61" stop-opacity="1"></stop><stop offset="80%" stop-color="#906179" stop-opacity="1"></stop></linearGradient></defs><defs><linearGradient id="grad1_5" x1="33.3%" y1="0%" x2="100%" y2="100%"><stop offset="20%" stop-color="#594d61" stop-opacity="1"></stop><stop offset="80%" stop-color="#34353a" stop-opacity="1"></stop></linearGradient></defs><defs><linearGradient id="grad2_0" x1="0%" y1="0%" x2="66.7%" y2="100%"><stop offset="20%" stop-color="#ffc86b" stop-opacity="1"></stop><stop offset="80%" stop-color="#ffc86b" stop-opacity="1"></stop></linearGradient></defs><defs><linearGradient id="grad2_1" x1="0%" y1="0%" x2="66.7%" y2="100%"><stop offset="20%" stop-color="#f19974" stop-opacity="1"></stop><stop offset="80%" stop-color="#ffc86b" stop-opacity="1"></stop></linearGradient></defs><defs><linearGradient id="grad2_2" x1="0%" y1="0%" x2="66.7%" y2="100%"><stop offset="20%" stop-color="#f19974" stop-opacity="1"></stop><stop offset="80%" stop-color="#c8787e" stop-opacity="1"></stop></linearGradient></defs><defs><linearGradient id="grad2_3" x1="0%" y1="0%" x2="66.7%" y2="100%"><stop offset="20%" stop-color="#906179" stop-opacity="1"></stop><stop offset="80%" stop-color="#c8787e" stop-opacity="1"></stop></linearGradient></defs><defs><linearGradient id="grad2_4" x1="0%" y1="0%" x2="66.7%" y2="100%"><stop offset="20%" stop-color="#906179" stop-opacity="1"></stop><stop offset="80%" stop-color="#594d61" stop-opacity="1"></stop></linearGradient></defs><defs><linearGradient id="grad2_5" x1="0%" y1="0%" x2="66.7%" y2="100%"><stop offset="20%" stop-color="#34353a" stop-opacity="1"></stop><stop offset="80%" stop-color="#594d61" stop-opacity="1"></stop></linearGradient></defs><g transform="translate(900, 0)"><path d="M0 378.6C-35.2 379.4 -70.5 380.2 -97.3 363.2C-124.1 346.2 -142.5 311.5 -168 291C-193.5 270.5 -226 264.2 -244.7 244.7C-263.3 225.1 -268.1 192.1 -289.3 167C-310.4 141.9 -348.1 124.5 -365.7 98C-383.3 71.5 -380.9 35.7 -378.6 0L0 0Z" fill="#44414e"></path><path d="M0 315.5C-29.4 316.1 -58.7 316.8 -81.1 302.7C-103.4 288.5 -118.8 259.6 -140 242.5C-161.2 225.4 -188.3 220.2 -203.9 203.9C-219.4 187.6 -223.4 160.1 -241 139.2C-258.7 118.2 -290 103.8 -304.7 81.7C-319.4 59.5 -317.5 29.8 -315.5 0L0 0Z" fill="#74576f"></path><path d="M0 252.4C-23.5 252.9 -47 253.4 -64.9 242.1C-82.8 230.8 -95 207.7 -112 194C-129 180.3 -150.7 176.2 -163.1 163.1C-175.5 150 -178.7 128.1 -192.8 111.3C-207 94.6 -232 83 -243.8 65.3C-255.5 47.6 -254 23.8 -252.4 0L0 0Z" fill="#ad6c7e"></path><path d="M0 189.3C-17.6 189.7 -35.2 190.1 -48.7 181.6C-62.1 173.1 -71.3 155.7 -84 145.5C-96.7 135.2 -113 132.1 -122.3 122.3C-131.7 112.5 -134 96.1 -144.6 83.5C-155.2 70.9 -174 62.3 -182.8 49C-191.7 35.7 -190.5 17.9 -189.3 0L0 0Z" fill="#df877a"></path><path d="M0 126.2C-11.7 126.5 -23.5 126.7 -32.4 121.1C-41.4 115.4 -47.5 103.8 -56 97C-64.5 90.2 -75.3 88.1 -81.6 81.6C-87.8 75 -89.4 64 -96.4 55.7C-103.5 47.3 -116 41.5 -121.9 32.7C-127.8 23.8 -127 11.9 -126.2 0L0 0Z" fill="#fcaf6e"></path><path d="M0 63.1C-5.9 63.2 -11.7 63.4 -16.2 60.5C-20.7 57.7 -23.8 51.9 -28 48.5C-32.2 45.1 -37.7 44 -40.8 40.8C-43.9 37.5 -44.7 32 -48.2 27.8C-51.7 23.6 -58 20.8 -60.9 16.3C-63.9 11.9 -63.5 6 -63.1 0L0 0Z" fill="#ffc86b"></path></g><g transform="translate(0, 600)"><path d="M0 -378.6C33.8 -374.2 67.6 -369.9 95.2 -355.5C122.9 -341 144.6 -316.5 175 -303.1C205.4 -289.7 244.7 -287.4 267.7 -267.7C290.7 -248 297.4 -210.9 312.6 -180.5C327.9 -150.1 351.7 -126.5 364.2 -97.6C376.6 -68.6 377.6 -34.3 378.6 0L0 0Z" fill="#44414e"></path><path d="M0 -315.5C28.1 -311.9 56.3 -308.2 79.4 -296.2C102.5 -284.2 120.5 -263.8 145.8 -252.6C171.2 -241.4 203.9 -239.5 223.1 -223.1C242.2 -206.7 247.8 -175.7 260.5 -150.4C273.2 -125.1 293.1 -105.4 303.5 -81.3C313.8 -57.2 314.6 -28.6 315.5 0L0 0Z" fill="#74576f"></path><path d="M0 -252.4C22.5 -249.5 45 -246.6 63.5 -237C82 -227.4 96.4 -211 116.7 -202.1C137 -193.1 163.1 -191.6 178.5 -178.5C193.8 -165.3 198.2 -140.6 208.4 -120.3C218.6 -100.1 234.5 -84.4 242.8 -65C251 -45.7 251.7 -22.9 252.4 0L0 0Z" fill="#ad6c7e"></path><path d="M0 -189.3C16.9 -187.1 33.8 -184.9 47.6 -177.7C61.5 -170.5 72.3 -158.3 87.5 -151.6C102.7 -144.9 122.4 -143.7 133.8 -133.8C145.3 -124 148.7 -105.4 156.3 -90.3C163.9 -75.1 175.9 -63.3 182.1 -48.8C188.3 -34.3 188.8 -17.2 189.3 0L0 0Z" fill="#df877a"></path><path d="M0 -126.2C11.3 -124.7 22.5 -123.3 31.7 -118.5C41 -113.7 48.2 -105.5 58.3 -101C68.5 -96.6 81.6 -95.8 89.2 -89.2C96.9 -82.7 99.1 -70.3 104.2 -60.2C109.3 -50 117.2 -42.2 121.4 -32.5C125.5 -22.9 125.9 -11.4 126.2 0L0 0Z" fill="#fcaf6e"></path><path d="M0 -63.1C5.6 -62.4 11.3 -61.6 15.9 -59.2C20.5 -56.8 24.1 -52.8 29.2 -50.5C34.2 -48.3 40.8 -47.9 44.6 -44.6C48.4 -41.3 49.6 -35.1 52.1 -30.1C54.6 -25 58.6 -21.1 60.7 -16.3C62.8 -11.4 62.9 -5.7 63.1 0L0 0Z" fill="#ffc86b"></path></g></svg>